<svg width="26" height="26" viewBox="0 0 26 26" fill="none" xmlns="http://www.w3.org/2000/svg">
<path d="M15.1856 23.985H10.79C5.72812 23.985 1.625 19.8738 1.625 14.8119V10.53H24.3506V14.8119C24.3506 19.8738 20.2475 23.985 15.1856 23.985Z" fill="#B4ACBC"/>
<path d="M17.8506 4.03003H8.125C4.53375 4.03003 1.625 6.93878 1.625 10.53C1.625 14.1213 4.53375 17.03 8.125 17.03H17.8506C21.4419 17.03 24.3506 14.1213 24.3506 10.53C24.3506 6.93878 21.4419 4.03003 17.8506 4.03003Z" fill="#E1D8EC"/>
<path d="M22.945 9.49819C22.945 9.41694 22.9369 9.33569 22.9369 9.24631C22.7906 7.28819 21.2144 5.71194 19.2644 5.57381C19.24 5.57381 19.2156 5.57381 19.1912 5.56569C17.9725 5.50069 16.8594 4.89131 16.0956 3.93256C15.7257 3.466 15.2552 3.08907 14.7191 2.82997C14.1831 2.57086 13.5954 2.43628 13 2.43628C12.4046 2.43628 11.8169 2.57086 11.2809 2.82997C10.7448 3.08907 10.2742 3.466 9.90437 3.93256C9.14062 4.89131 8.02749 5.50069 6.80874 5.56569C6.78437 5.56569 6.75999 5.56569 6.73562 5.57381C4.78562 5.71194 3.20937 7.28819 3.06312 9.24631C3.05499 9.32756 3.05499 9.41694 3.05499 9.49819C3.05499 12.5613 5.54124 15.0476 8.60437 15.0476H17.4037C20.4587 15.0476 22.945 12.5613 22.945 9.49819Z" fill="#44911B"/>
<path d="M20.1744 9.93682C20.8191 9.18775 21.1791 8.23534 21.191 7.2471C21.2028 6.25885 20.8659 5.29806 20.2394 4.5337C20.1825 4.46269 20.1104 4.40524 20.0286 4.3655C19.9467 4.32577 19.857 4.30476 19.766 4.30398C19.675 4.3032 19.585 4.32268 19.5024 4.36101C19.4199 4.39933 19.3469 4.45555 19.2888 4.52557L18.4381 5.51357L17.9319 7.80238L15.5464 8.8757L14.69 9.87182C14.4381 10.1643 14.5113 10.6112 14.8444 10.8143C16.5588 11.8299 18.8175 11.5049 20.1744 9.93682Z" fill="#F8312F"/>
<path d="M22.1601 12.3987C21.7957 13.2389 21.1936 13.9541 20.4279 14.4565C19.6623 14.9589 18.7664 15.2264 17.8506 15.2262H8.125C7.16714 15.2252 6.23242 14.9319 5.44577 14.3854C4.65912 13.8389 4.05803 13.0653 3.72287 12.168C4.22339 11.5683 4.83939 11.0755 5.53422 10.7187C6.22905 10.362 6.98853 10.1486 7.7675 10.0912C9.01875 10.01 10.1806 10.3106 11.1719 10.8956C12.2037 11.505 13.5119 11.505 14.5437 10.8956C15.5673 10.288 16.753 10.01 17.94 10.0993C19.6527 10.2196 21.1705 11.0987 22.1601 12.3987Z" fill="#86D72F"/>
<path d="M6.48375 13.0083C8.37688 13.8452 10.5625 13.1789 11.6756 11.5133C11.8869 11.1964 11.765 10.7577 11.4156 10.5952L10.2188 10.0654L7.83819 10.0004L6.16688 8.27223L4.9725 7.74329C4.615 7.58079 4.20875 7.78392 4.11125 8.15767C3.63188 10.0995 4.59063 12.1714 6.48375 13.0083Z" fill="#F92F60"/>
<path d="M18.46 5.48438C19.4025 6.29688 19.5081 7.71875 18.6956 8.66125C17.8831 9.60375 16.4613 9.7175 15.5188 8.89687L18.46 5.48438ZM10.2538 10.0831C10.0035 10.6172 9.55394 11.0319 9.00146 11.2383C8.44897 11.4446 7.8376 11.4262 7.29853 11.187C6.75946 10.9478 6.33563 10.5068 6.11799 9.95862C5.90035 9.41048 5.90623 8.79886 6.13438 8.255L10.2538 10.0831Z" fill="#CA0B4A"/>
<path d="M11.8381 8.52307C12.2325 8.52307 12.6107 8.36641 12.8895 8.08757C13.1683 7.80873 13.325 7.43054 13.325 7.03619C13.325 6.64185 13.1683 6.26366 12.8895 5.98481C12.6107 5.70597 12.2325 5.54932 11.8381 5.54932C11.4438 5.54932 11.0656 5.70597 10.7867 5.98481C10.5079 6.26366 10.3512 6.64185 10.3512 7.03619C10.3512 7.43054 10.5079 7.80873 10.7867 8.08757C11.0656 8.36641 11.4438 8.52307 11.8381 8.52307ZM19.6219 13.0406C20.0162 13.0406 20.3944 12.8839 20.6733 12.6051C20.9521 12.3262 21.1087 11.948 21.1087 11.5537C21.1087 11.1593 20.9521 10.7812 20.6733 10.5023C20.3944 10.2235 20.0162 10.0668 19.6219 10.0668C19.2275 10.0668 18.8493 10.2235 18.5705 10.5023C18.2917 10.7812 18.135 11.1593 18.135 11.5537C18.135 11.948 18.2917 12.3262 18.5705 12.6051C18.8493 12.8839 19.2275 13.0406 19.6219 13.0406ZM12.4719 13.2599C12.4719 13.4552 12.4334 13.6485 12.3587 13.8289C12.284 14.0093 12.1744 14.1733 12.0364 14.3113C11.8983 14.4494 11.7344 14.5589 11.554 14.6336C11.3736 14.7084 11.1803 14.7468 10.985 14.7468C10.7897 14.7468 10.5964 14.7084 10.416 14.6336C10.2356 14.5589 10.0717 14.4494 9.93362 14.3113C9.79555 14.1733 9.68603 14.0093 9.61131 13.8289C9.53658 13.6485 9.49812 13.4552 9.49812 13.2599C9.49812 12.8656 9.65478 12.4874 9.93362 12.2086C10.2125 11.9297 10.5907 11.7731 10.985 11.7731C11.3793 11.7731 11.7575 11.9297 12.0364 12.2086C12.3152 12.4874 12.4719 12.8656 12.4719 13.2599Z" fill="#F9C23C"/>
</svg>
