<svg width="14" height="14" viewBox="0 0 14 14" fill="none" xmlns="http://www.w3.org/2000/svg">
<path d="M5.10411 8.45833C5.53092 8.45824 5.94527 8.60217 6.28012 8.86682C6.61496 9.13148 6.8507 9.50138 6.9492 9.91667H12.3958C12.5066 9.9167 12.6133 9.95881 12.6943 10.0345C12.7753 10.1102 12.8246 10.2138 12.8321 10.3243C12.8397 10.4349 12.805 10.5443 12.735 10.6303C12.6651 10.7162 12.5651 10.7725 12.4553 10.7876L12.3958 10.7917L6.9492 10.7923C6.85058 11.2075 6.61479 11.5773 6.27997 11.8419C5.94515 12.1065 5.53087 12.2504 5.10411 12.2504C4.67736 12.2504 4.26308 12.1065 3.92826 11.8419C3.59344 11.5773 3.35765 11.2075 3.25903 10.7923L1.60411 10.7917C1.49327 10.7916 1.38657 10.7495 1.30557 10.6739C1.22457 10.5982 1.17532 10.4946 1.16777 10.384C1.16021 10.2734 1.19492 10.1641 1.26487 10.0781C1.33482 9.99209 1.4348 9.93586 1.54461 9.92075L1.60411 9.91667H3.25903C3.35753 9.50138 3.59327 9.13148 3.92811 8.86682C4.26296 8.60217 4.67731 8.45824 5.10411 8.45833ZM8.89578 1.75C9.32259 1.74991 9.73694 1.89383 10.0718 2.15849C10.4066 2.42315 10.6424 2.79305 10.7409 3.20833H12.3958C12.5066 3.20837 12.6133 3.25048 12.6943 3.32615C12.7753 3.40183 12.8246 3.50542 12.8321 3.61601C12.8397 3.7266 12.805 3.83594 12.735 3.92192C12.6651 4.00791 12.5651 4.06414 12.4553 4.07925L12.3958 4.08333L10.7409 4.08392C10.6418 4.49871 10.4058 4.86802 10.071 5.13223C9.73628 5.39645 9.32225 5.54015 8.89578 5.54015C8.46931 5.54015 8.05529 5.39645 7.72052 5.13223C7.38576 4.86802 7.14979 4.49871 7.0507 4.08392L1.60411 4.08333C1.49327 4.0833 1.38657 4.04119 1.30557 3.96552C1.22457 3.88984 1.17532 3.78624 1.16777 3.67565C1.16021 3.56506 1.19492 3.45573 1.26487 3.36974C1.33482 3.28375 1.4348 3.22753 1.54461 3.21242L1.60411 3.20833H7.0507C7.14919 2.79305 7.38494 2.42315 7.71978 2.15849C8.05462 1.89383 8.46898 1.74991 8.89578 1.75Z" fill="#9E9E9E"/>
</svg>
